{"glyphs":{":":{"x_min":0,"x_max":285,"ha":285,"o":"m 101 459 q 101 504 128 530 q 155 556 201 556 q 234 556 254 537 q 274 519 274 485 q 274 443 247 417 q 221 390 177 390 q 142 390 121 408 q 101 426 101 459 z m 12 56 q 12 100 38 126 q 64 153 112 153 q 145 153 165 134 q 185 116 185 82 q 185 40 158 13 q 131 -13 88 -13 q 52 -13 32 5 q 12 23 12 56 z"},"$":{"x_min":0,"x_max":551,"ha":551,"o":"m 505 242 q 505 152 444 100 q 382 47 264 39 l 245 -58 l 177 -58 l 198 40 q 96 46 25 82 l 25 212 q 122 160 222 155 l 257 312 q 177 342 139 386 q 101 430 101 490 q 101 575 163 627 q 225 679 334 686 l 351 760 l 419 760 l 403 686 q 484 675 547 642 l 495 529 q 431 561 377 565 l 346 419 q 410 394 441 370 q 473 347 489 315 q 505 284 505 242 z m 290 157 q 321 162 340 179 q 359 197 359 227 q 359 250 347 264 q 335 278 318 285 z m 309 565 q 279 562 262 545 q 245 528 245 499 q 245 460 284 445 z"},"?":{"x_min":0,"x_max":459,"ha":459,"o":"m 127 237 l 134 275 q 143 325 170 361 q 196 397 254 437 q 314 478 331 499 q 347 520 347 546 q 347 604 282 604 q 258 604 230 596 q 203 588 132 555 l 87 663 q 199 724 304 724 q 391 724 441 681 q 491 639 491 562 q 491 521 477 489 q 463 457 437 429 q 411 401 344 357 q 313 336 297 321 q 281 307 271 290 q 262 273 253 237 z m 81 56 q 81 101 108 127 q 135 153 181 153 q 214 153 234 134 q 254 116 254 82 q 254 40 227 13 q 200 -13 157 -13 q 121 -13 101 5 q 81 24 81 56 z"},"<":{"x_min":0,"x_max":551,"ha":551,"o":"m 518 99 l 53 313 l 53 383 l 518 625 l 518 508 l 204 353 l 518 216 z"},"'":{"x_min":0,"x_max":255,"ha":255,"o":"m 268 714 l 194 456 l 98 456 l 133 714 z"},"=":{"x_min":0,"x_max":551,"ha":551,"o":"m 53 394 l 53 500 l 518 500 l 518 394 z m 53 204 l 53 311 l 518 311 l 518 204 z"},"a":{"x_min":0,"x_max":594,"ha":594,"o":"m 198 -10 q 126 -10 85 42 q 44 94 44 188 q 44 285 79 372 q 114 460 171 508 q 229 556 297 556 q 344 556 379 536 q 413 515 432 476 l 436 476 l 464 546 l 577 546 l 461 0 l 349 0 l 356 71 l 354 71 q 289 -10 198 -10 z m 256 109 q 290 109 321 142 q 352 174 371 230 q 390 286 390 357 q 390 392 371 414 q 353 437 322 437 q 289 437 259 402 q 229 367 211 309 q 193 251 193 195 q 193 152 209 130 q 226 109 256 109 z"},"L":{"x_min":0,"x_max":518,"ha":518,"o":"m 26 0 l 177 714 l 326 714 l 201 125 l 451 125 l 425 0 z"},"3":{"x_min":0,"x_max":551,"ha":551,"o":"m 539 561 q 539 485 493 433 q 447 381 365 367 l 365 365 q 429 353 462 313 q 495 274 495 215 q 495 150 459 99 q 423 47 355 19 q 288 -10 196 -10 q 79 -10 7 29 l 7 159 q 48 135 96 122 q 144 110 189 110 q 266 110 308 141 q 349 172 349 227 q 349 311 223 311 l 156 311 l 178 419 l 214 419 q 295 419 342 449 q 389 479 389 533 q 389 566 368 584 q 347 602 309 602 q 244 602 169 553 l 107 653 q 167 692 220 708 q 273 724 341 724 q 434 724 486 680 q 539 636 539 561 z"},";":{"x_min":0,"x_max":285,"ha":285,"o":"m 188 105 q 130 -20 60 -129 l -50 -129 q -14 -47 45 116 l 184 116 z m 101 459 q 101 504 128 530 q 155 556 201 556 q 234 556 254 537 q 274 519 274 485 q 274 443 247 417 q 221 390 177 390 q 142 390 121 408 q 101 426 101 459 z"},"J":{"x_min":0,"x_max":331,"ha":331,"o":"m -66 -210 q -112 -210 -157 -197 l -157 -73 q -114 -83 -77 -83 q -29 -83 1 -53 q 31 -24 45 40 l 188 714 l 337 714 l 189 19 q 164 -101 103 -155 q 43 -210 -66 -210 z"},"V":{"x_min":0,"x_max":590,"ha":590,"o":"m 261 146 q 299 254 315 284 l 526 714 l 680 714 l 315 0 l 152 0 l 90 714 l 234 714 l 259 284 q 261 262 261 219 q 260 169 258 146 z"},"\"":{"x_min":0,"x_max":453,"ha":453,"o":"m 268 714 l 194 456 l 98 456 l 133 714 z m 466 714 l 392 456 l 295 456 l 331 714 z"},"7":{"x_min":0,"x_max":551,"ha":551,"o":"m 38 0 l 398 587 l 91 587 l 118 714 l 594 714 l 574 619 l 207 0 z"},"S":{"x_min":0,"x_max":530,"ha":530,"o":"m 462 211 q 462 109 390 50 q 317 -10 194 -10 q 86 -10 20 34 l 20 168 q 114 115 195 115 q 250 115 280 136 q 311 157 311 193 q 311 214 304 230 q 298 246 286 259 q 273 273 225 309 q 158 357 130 405 q 103 452 103 507 q 103 570 133 619 q 164 669 219 697 q 275 724 348 724 q 454 724 542 676 l 489 562 q 413 598 348 598 q 308 598 282 576 q 256 554 256 518 q 256 488 272 466 q 288 444 344 407 q 403 368 433 321 q 462 274 462 211 z"},"}":{"x_min":0,"x_max":355,"ha":355,"o":"m 125 714 q 291 714 291 593 q 291 565 284 532 l 265 442 q 258 408 258 400 q 258 332 360 332 l 338 220 q 278 220 244 200 q 209 179 199 132 l 169 -7 q 151 -90 105 -124 q 60 -158 -27 -158 l -49 -158 l -49 -48 q -3 -46 18 -31 q 40 -15 47 21 l 79 166 q 91 220 125 247 q 160 274 214 281 l 214 285 q 132 310 132 391 q 132 412 139 446 l 157 533 q 160 548 160 558 q 160 584 142 594 q 125 604 89 604 l 109 714 z"},"Z":{"x_min":0,"x_max":536,"ha":536,"o":"m 449 0 l -30 0 l -11 98 l 368 589 l 103 589 l 129 714 l 586 714 l 566 615 l 184 125 l 475 125 z"},"x":{"x_min":0,"x_max":531,"ha":531,"o":"m 185 280 l 75 546 l 232 546 l 288 383 l 407 546 l 580 546 l 352 272 l 471 0 l 312 0 l 251 167 l 122 0 l -49 0 z"},")":{"x_min":0,"x_max":339,"ha":339,"o":"m 302 419 q 302 252 241 111 q 181 -30 56 -158 l -72 -158 q 172 108 172 424 q 172 574 115 714 l 229 714 q 302 585 302 419 z"},"&":{"x_min":0,"x_max":708,"ha":708,"o":"m 647 0 l 476 0 l 441 48 q 355 -10 244 -10 q 142 -10 88 38 q 33 85 33 175 q 33 246 72 296 q 110 347 205 394 q 168 458 168 520 q 168 615 225 670 q 283 725 380 725 q 462 725 510 685 q 557 645 557 575 q 557 438 379 367 l 474 239 q 496 267 513 298 q 531 330 552 383 l 698 383 q 633 230 547 140 z m 264 304 q 221 279 204 253 q 187 227 187 189 q 187 157 209 136 q 231 115 266 115 q 322 115 374 144 z m 323 449 q 378 478 399 503 q 420 529 420 558 q 420 586 405 598 q 391 611 371 611 q 339 611 321 588 q 303 565 303 530 q 303 507 309 485 q 315 462 323 449 z"},"_":{"x_min":0,"x_max":400,"ha":400,"o":"m 310 -158 l -91 -158 l -76 -90 l 325 -90 z"},"v":{"x_min":0,"x_max":512,"ha":512,"o":"m 222 147 q 249 222 267 256 l 412 546 l 570 546 l 275 0 l 117 0 l 50 546 l 194 546 l 216 260 q 219 195 219 147 z"},"O":{"x_min":0,"x_max":730,"ha":730,"o":"m 699 458 q 699 320 651 211 q 603 102 519 46 q 435 -10 325 -10 q 200 -10 130 62 q 60 134 60 262 q 60 392 108 500 q 157 609 242 667 q 327 725 438 725 q 562 725 631 655 q 699 584 699 458 z m 426 599 q 367 599 317 554 q 268 510 240 432 q 212 354 212 262 q 212 190 244 154 q 277 117 336 117 q 395 117 444 160 q 492 202 520 280 q 547 357 547 454 q 547 523 515 561 q 483 599 426 599 z"},"(":{"x_min":0,"x_max":339,"ha":339,"o":"m 36 137 q 36 303 96 443 q 156 583 282 714 l 410 714 q 286 578 226 434 q 166 290 166 132 q 166 -19 223 -158 l 109 -158 q 36 -28 36 137 z"},"C":{"x_min":0,"x_max":612,"ha":612,"o":"m 442 599 q 377 599 326 560 q 274 520 243 443 q 212 366 212 278 q 212 196 245 157 q 279 117 352 117 q 423 117 517 155 l 517 28 q 420 -10 322 -10 q 198 -10 129 63 q 60 136 60 270 q 60 398 111 506 q 162 613 247 669 q 332 725 442 725 q 503 725 550 714 q 598 703 652 674 l 594 552 q 542 581 509 590 q 475 599 442 599 z"},"W":{"x_min":0,"x_max":894,"ha":894,"o":"m 491 497 q 469 426 435 351 l 277 0 l 112 0 l 90 714 l 230 714 l 233 324 q 233 299 231 240 q 229 181 226 155 l 229 155 q 240 186 262 243 q 284 300 291 314 l 471 714 l 603 714 l 613 288 q 613 216 609 155 l 612 155 q 633 218 676 325 l 837 714 l 988 714 l 672 0 l 503 0 l 492 352 l 491 420 q 491 463 493 497 z"},"A":{"x_min":0,"x_max":628,"ha":628,"o":"m 411 170 l 180 170 l 96 0 l -60 0 l 314 717 l 496 717 l 568 0 l 423 0 z m 404 297 l 391 468 q 386 532 386 591 l 386 609 q 365 550 333 485 l 241 297 z"},"f":{"x_min":0,"x_max":373,"ha":373,"o":"m -22 -240 q -73 -240 -107 -228 l -107 -110 q -77 -120 -51 -120 q -21 -120 1 -101 q 24 -81 33 -37 l 133 434 l 53 434 l 68 505 l 157 546 l 166 587 q 186 680 234 722 q 281 765 367 765 q 431 765 482 741 l 443 632 q 409 647 378 647 q 350 647 333 627 q 316 608 310 576 l 304 546 l 411 546 l 387 434 l 280 434 l 175 -59 q 137 -240 -22 -240 z"},"Q":{"x_min":0,"x_max":730,"ha":730,"o":"m 699 458 q 699 304 639 187 q 580 70 476 22 l 600 -170 l 425 -170 l 338 -10 l 325 -10 q 200 -10 130 62 q 60 134 60 262 q 60 392 108 500 q 157 609 242 667 q 327 725 438 725 q 562 725 631 655 q 699 584 699 458 z m 426 599 q 367 599 317 554 q 268 510 240 432 q 212 354 212 262 q 212 190 244 154 q 277 117 336 117 q 395 117 444 160 q 492 202 520 280 q 547 357 547 454 q 547 523 515 561 q 483 599 426 599 z"},"w":{"x_min":0,"x_max":788,"ha":788,"o":"m 418 420 q 388 333 358 264 l 244 0 l 86 0 l 61 546 l 198 546 l 200 304 l 198 223 l 195 139 l 197 139 q 200 149 204 159 q 208 170 229 226 q 250 282 251 284 l 364 546 l 524 546 l 524 284 q 524 215 519 139 l 522 139 l 536 178 q 571 280 582 304 l 689 546 l 839 546 l 580 0 l 419 0 l 416 254 q 416 330 421 420 z"},"-":{"x_min":0,"x_max":322,"ha":322,"o":"m 20 207 l 46 329 l 302 329 l 276 207 z"},"E":{"x_min":0,"x_max":542,"ha":542,"o":"m 425 0 l 26 0 l 177 714 l 576 714 l 550 590 l 300 590 l 267 433 l 500 433 l 473 309 l 240 309 l 201 125 l 451 125 z"},"s":{"x_min":0,"x_max":473,"ha":473,"o":"m 405 180 q 405 88 344 39 q 283 -10 175 -10 q 123 -10 84 -2 q 45 5 11 22 l 11 143 q 88 99 167 99 q 206 99 231 115 q 256 131 256 158 q 256 179 238 196 q 220 212 174 238 q 115 271 91 304 q 68 337 68 382 q 68 465 122 510 q 176 556 276 556 q 374 556 453 510 l 405 405 q 336 446 279 446 q 251 446 234 433 q 217 421 217 400 q 217 381 232 366 q 248 352 291 330 q 351 299 378 263 q 405 227 405 180 z"},">":{"x_min":0,"x_max":551,"ha":551,"o":"m 53 216 l 367 353 l 53 508 l 53 625 l 518 383 l 518 313 l 53 99 z"},"l":{"x_min":0,"x_max":297,"ha":297,"o":"m 165 0 l 18 0 l 179 760 l 326 760 z"},"8":{"x_min":0,"x_max":551,"ha":551,"o":"m 352 725 q 412 725 457 705 q 502 684 526 647 q 550 610 550 562 q 550 497 510 448 q 471 399 398 374 q 504 305 504 196 q 504 136 473 89 q 442 42 385 16 q 327 -10 251 -10 q 146 -10 87 39 q 27 88 27 171 q 27 316 197 379 q 116 443 116 525 q 116 583 145 629 q 173 674 227 700 q 280 725 352 725 z m 284 314 q 228 292 200 262 q 172 231 172 187 q 172 147 196 124 q 221 101 262 101 q 308 101 334 127 q 361 153 361 195 q 361 230 343 259 q 325 288 284 314 z m 339 615 q 302 615 280 593 q 258 570 258 534 q 258 470 318 436 q 408 471 408 544 q 408 577 389 596 q 370 615 339 615 z"},"\\":{"x_min":0,"x_max":421,"ha":421,"o":"m 235 714 l 344 0 l 214 0 l 108 714 z"},"e":{"x_min":0,"x_max":557,"ha":557,"o":"m 340 450 q 297 450 259 411 q 221 372 209 316 l 231 316 q 307 316 349 340 q 391 363 391 404 q 391 450 340 450 z m 260 -10 q 157 -10 101 45 q 44 101 44 201 q 44 302 84 385 q 125 469 193 512 q 262 556 349 556 q 436 556 484 516 q 532 477 532 407 q 532 316 451 266 q 369 217 218 217 l 193 217 l 192 207 l 192 197 q 192 152 217 127 q 242 101 289 101 q 332 101 366 110 q 401 120 450 143 l 450 32 q 366 -10 260 -10 z"},"b":{"x_min":0,"x_max":595,"ha":595,"o":"m 397 556 q 468 556 510 503 q 551 451 551 358 q 551 265 518 178 q 484 92 426 41 q 368 -10 298 -10 q 203 -10 163 70 l 159 70 l 131 0 l 18 0 l 179 760 l 326 760 l 296 619 q 276 530 255 473 l 259 473 q 297 521 328 539 q 360 556 397 556 z m 338 437 q 305 437 274 405 q 244 374 225 317 q 205 261 205 195 q 205 156 223 132 q 241 109 273 109 q 306 109 335 143 q 365 176 384 235 q 402 294 402 351 q 402 437 338 437 z"},"%":{"x_min":0,"x_max":856,"ha":856,"o":"m 253 622 q 222 622 199 559 q 176 497 176 424 q 176 377 203 377 q 235 377 258 441 q 281 505 281 575 q 281 622 253 622 z m 401 569 q 401 488 374 417 q 346 347 300 312 q 253 276 194 276 q 126 276 91 317 q 56 357 56 432 q 56 515 83 584 q 110 654 156 689 q 201 724 261 724 q 328 724 365 685 q 401 646 401 569 z m 759 714 l 230 0 l 113 0 l 644 714 z m 672 337 q 653 337 635 310 q 618 282 606 234 q 595 187 595 139 q 595 92 622 92 q 642 92 660 119 q 677 146 689 194 q 700 243 700 290 q 700 337 672 337 z m 820 288 q 820 207 793 135 q 767 63 721 27 q 675 -9 616 -9 q 546 -9 510 30 q 475 68 475 138 q 475 225 501 296 q 527 367 573 403 q 620 439 680 439 q 747 439 783 401 q 820 362 820 288 z"},"m":{"x_min":0,"x_max":905,"ha":905,"o":"m 412 556 q 519 556 540 445 l 543 445 q 576 499 621 527 q 667 556 718 556 q 784 556 819 515 q 854 473 854 399 q 854 362 843 311 l 778 0 l 631 0 l 698 319 q 706 352 706 377 q 706 437 658 437 q 613 437 577 382 q 541 328 519 227 l 472 0 l 325 0 l 392 319 q 400 352 400 377 q 400 437 352 437 q 307 437 271 381 q 234 326 213 226 l 165 0 l 18 0 l 134 546 l 246 546 l 236 445 l 239 445 q 310 556 412 556 z"},"#":{"x_min":0,"x_max":646,"ha":646,"o":"m 506 413 l 472 300 l 598 300 l 589 199 l 444 199 l 387 0 l 280 0 l 337 199 l 242 199 l 186 0 l 81 0 l 136 199 l 20 199 l 29 300 l 164 300 l 198 413 l 75 413 l 84 515 l 225 515 l 283 714 l 389 714 l 332 515 l 429 515 l 486 714 l 591 714 l 534 515 l 651 515 l 642 413 z m 270 300 l 366 300 l 400 413 l 304 413 z"},",":{"x_min":0,"x_max":278,"ha":278,"o":"m 184 116 l 188 105 q 130 -20 60 -129 l -50 -129 q -14 -47 45 116 z"},"n":{"x_min":0,"x_max":604,"ha":604,"o":"m 477 0 l 330 0 l 397 319 q 405 352 405 377 q 405 437 352 437 q 307 437 271 381 q 234 326 213 226 l 165 0 l 18 0 l 134 546 l 246 546 l 236 445 l 239 445 q 310 556 412 556 q 479 556 516 515 q 553 475 553 399 q 553 363 542 311 z"},"h":{"x_min":0,"x_max":604,"ha":604,"o":"m 477 0 l 330 0 l 397 319 q 405 352 405 377 q 405 437 352 437 q 307 437 271 381 q 234 326 213 226 l 165 0 l 18 0 l 179 760 l 326 760 q 307 671 297 624 q 287 577 255 473 l 259 473 q 289 511 326 533 q 363 556 412 556 q 479 556 516 515 q 553 475 553 399 q 553 363 542 311 z"},"z":{"x_min":0,"x_max":455,"ha":455,"o":"m 365 0 l -23 0 l -6 88 l 275 432 l 81 432 l 106 546 l 472 546 l 451 448 l 175 114 l 389 114 z"},"B":{"x_min":0,"x_max":620,"ha":620,"o":"m 385 714 q 497 714 554 674 q 611 634 611 555 q 611 482 570 434 q 530 387 455 371 l 455 368 q 504 355 533 321 q 562 287 562 233 q 562 121 487 61 q 413 0 281 0 l 26 0 l 177 714 z m 266 431 l 339 431 q 398 431 427 455 q 457 479 457 523 q 457 590 374 590 l 300 590 z m 201 125 l 289 125 q 346 125 379 153 q 411 182 411 232 q 411 311 322 311 l 241 311 z"},"K":{"x_min":0,"x_max":613,"ha":613,"o":"m 557 0 l 392 0 l 289 289 l 228 255 l 175 0 l 26 0 l 177 714 l 326 714 l 252 371 l 329 471 l 529 714 l 705 714 l 415 372 z"},"R":{"x_min":0,"x_max":609,"ha":609,"o":"m 259 397 l 297 397 q 361 397 396 425 q 432 453 432 510 q 432 550 409 570 q 386 590 336 590 l 300 590 z m 233 274 l 175 0 l 26 0 l 177 714 l 352 714 q 468 714 526 664 q 584 614 584 518 q 584 441 543 385 q 503 330 427 303 l 554 0 l 392 0 l 291 274 z"},"T":{"x_min":0,"x_max":531,"ha":531,"o":"m 279 0 l 130 0 l 254 588 l 82 588 l 109 714 l 602 714 l 575 588 l 403 588 z"},"P":{"x_min":0,"x_max":580,"ha":580,"o":"m 255 378 l 282 378 q 352 378 391 412 q 431 445 431 502 q 431 590 336 590 l 300 590 z m 581 506 q 581 388 498 321 q 416 254 270 254 l 228 254 l 175 0 l 26 0 l 177 714 l 342 714 q 460 714 521 662 q 581 610 581 506 z"},"|":{"x_min":0,"x_max":551,"ha":551,"o":"m 222 757 l 329 757 l 329 -227 l 222 -227 z"},"t":{"x_min":0,"x_max":410,"ha":410,"o":"m 251 109 q 283 109 330 126 l 330 16 q 276 -10 200 -10 q 127 -10 93 21 q 58 52 58 116 q 58 141 64 171 l 120 434 l 46 434 l 60 506 l 156 547 l 220 662 l 315 662 l 291 546 l 429 546 l 405 434 l 267 434 l 211 171 q 208 156 208 145 q 208 109 251 109 z"},"M":{"x_min":0,"x_max":880,"ha":880,"o":"m 409 180 l 678 714 l 885 714 l 734 0 l 597 0 l 668 338 q 694 458 719 553 l 717 553 l 439 0 l 302 0 l 272 553 l 270 553 q 265 510 251 440 q 238 371 160 0 l 26 0 l 177 714 l 374 714 l 407 180 z"},"g":{"x_min":0,"x_max":541,"ha":541,"o":"m 579 545 l 562 464 l 477 444 q 485 418 485 386 q 485 291 426 236 q 367 180 265 180 q 236 180 217 185 q 176 172 176 147 q 176 130 190 123 q 205 116 234 112 l 301 103 q 380 93 417 62 q 453 31 453 -28 q 453 -131 377 -186 q 301 -240 159 -240 q 58 -240 1 -203 q -56 -167 -56 -102 q -56 -52 -23 -16 q 11 20 82 43 q 46 66 46 108 q 46 143 68 168 q 89 193 139 216 q 107 240 92 271 q 77 301 77 345 q 77 442 138 499 q 200 556 305 556 q 346 556 386 545 z m 178 -3 q 126 -10 100 -31 q 73 -52 73 -84 q 73 -140 168 -140 q 242 -140 279 -118 q 317 -96 317 -56 q 317 -37 301 -27 q 285 -17 234 -10 z m 300 463 q 262 463 239 426 q 216 388 216 332 q 216 274 266 274 q 303 274 325 311 q 348 349 348 406 q 348 463 300 463 z"},"j":{"x_min":0,"x_max":297,"ha":297,"o":"m -44 -240 q -95 -240 -129 -228 l -129 -110 q -99 -120 -73 -120 q -6 -120 11 -37 l 135 546 l 282 546 l 153 -59 q 115 -240 -44 -240 z m 158 674 q 158 716 181 738 q 205 760 247 760 q 283 760 301 745 q 320 729 320 701 q 320 662 298 638 q 277 614 232 614 q 158 614 158 674 z"},"i":{"x_min":0,"x_max":297,"ha":297,"o":"m 157 674 q 157 716 180 738 q 204 760 246 760 q 282 760 300 745 q 319 729 319 701 q 319 662 297 638 q 276 614 231 614 q 157 614 157 674 z m 165 0 l 18 0 l 134 546 l 281 546 z"},"y":{"x_min":0,"x_max":519,"ha":519,"o":"m 50 546 l 194 546 l 221 293 q 228 233 228 150 l 231 150 q 241 175 252 208 q 264 242 284 283 l 411 546 l 571 546 l 239 -78 q 152 -240 3 -240 q -41 -240 -69 -231 l -69 -114 q -36 -120 -12 -120 q 29 -120 60 -97 q 91 -73 117 -24 l 130 0 z"},"@":{"x_min":0,"x_max":856,"ha":856,"o":"m 846 410 q 846 326 815 253 q 784 181 728 141 q 673 100 604 100 q 561 100 533 119 q 506 138 498 172 l 495 172 q 471 134 440 117 q 409 100 368 100 q 306 100 271 139 q 237 178 237 251 q 237 323 270 386 q 303 449 361 486 q 420 523 492 523 q 583 523 652 496 l 600 291 q 595 270 591 254 q 587 238 587 222 q 587 189 615 189 q 647 189 676 220 q 704 251 721 304 q 738 356 738 408 q 738 512 677 567 q 617 622 502 622 q 403 622 323 576 q 243 530 198 446 q 154 362 154 255 q 154 136 219 69 q 285 2 403 2 q 460 2 510 12 q 560 21 618 44 l 618 -47 q 506 -91 391 -91 q 285 -91 207 -49 q 128 -7 86 69 q 45 145 45 244 q 45 380 104 487 q 163 593 271 654 q 380 714 514 714 q 669 714 758 634 q 846 554 846 410 z m 486 434 q 446 434 415 409 q 384 384 366 342 q 348 300 348 257 q 348 225 360 207 q 372 189 394 189 q 463 189 498 321 l 526 429 q 508 434 486 434 z"},".":{"x_min":0,"x_max":285,"ha":285,"o":"m 12 56 q 12 100 38 126 q 64 153 112 153 q 145 153 165 134 q 185 116 185 82 q 185 40 158 13 q 131 -13 88 -13 q 52 -13 32 5 q 12 23 12 56 z"},"p":{"x_min":0,"x_max":595,"ha":595,"o":"m 397 556 q 468 556 510 504 q 551 451 551 357 q 551 264 517 177 q 484 91 426 41 q 368 -10 298 -10 q 257 -10 228 8 q 199 26 174 70 l 170 70 q 164 -8 149 -74 l 114 -240 l -33 -240 l 134 546 l 246 546 l 238 463 l 242 463 q 310 556 397 556 z m 338 437 q 305 437 274 404 q 243 371 224 316 q 205 261 205 195 q 205 156 223 132 q 241 109 273 109 q 306 109 335 143 q 365 176 384 235 q 402 294 402 351 q 402 437 338 437 z"},"X":{"x_min":0,"x_max":606,"ha":606,"o":"m 549 0 l 387 0 l 303 265 l 110 0 l -57 0 l 224 373 l 108 714 l 264 714 l 339 461 l 516 714 l 684 714 l 418 360 z"},"*":{"x_min":0,"x_max":545,"ha":545,"o":"m 432 743 l 377 571 l 566 585 l 557 461 l 392 482 l 470 318 l 350 282 l 306 447 l 210 311 l 109 391 l 243 512 l 84 557 l 126 673 l 291 588 l 307 768 z"},"Y":{"x_min":0,"x_max":564,"ha":564,"o":"m 306 425 l 489 714 l 656 714 l 354 273 l 296 0 l 148 0 l 206 273 l 91 714 l 243 714 z"},"c":{"x_min":0,"x_max":483,"ha":483,"o":"m 247 -10 q 149 -10 96 43 q 44 95 44 191 q 44 294 80 379 q 117 464 183 510 q 249 556 333 556 q 422 556 493 521 l 448 409 q 422 420 396 429 q 371 437 339 437 q 297 437 264 406 q 230 375 212 320 q 193 266 193 203 q 193 156 215 133 q 237 109 277 109 q 314 109 346 120 q 377 132 411 149 l 411 29 q 337 -10 247 -10 z"},"!":{"x_min":0,"x_max":286,"ha":286,"o":"m 191 237 l 73 237 l 150 714 l 316 714 z m 12 56 q 12 100 38 126 q 64 153 112 153 q 145 153 165 134 q 185 116 185 82 q 185 40 158 13 q 131 -13 88 -13 q 52 -13 32 5 q 12 23 12 56 z"},"/":{"x_min":0,"x_max":421,"ha":421,"o":"m 495 714 l 100 0 l -44 0 l 351 714 z"},"[":{"x_min":0,"x_max":331,"ha":331,"o":"m 213 -158 l -18 -158 l 168 714 l 399 714 l 377 611 l 272 611 l 130 -55 l 235 -55 z"},"6":{"x_min":0,"x_max":551,"ha":551,"o":"m 43 229 q 43 328 73 422 q 103 517 155 586 q 207 655 280 690 q 353 725 454 725 q 515 725 563 712 l 538 592 q 497 604 445 604 q 350 604 292 551 q 233 499 201 383 l 203 383 q 259 464 355 464 q 432 464 473 417 q 515 369 515 283 q 515 201 480 130 q 446 60 387 25 q 329 -10 252 -10 q 148 -10 96 52 q 43 114 43 229 z m 259 111 q 307 111 338 157 q 368 203 368 272 q 368 307 352 327 q 335 348 302 348 q 272 348 246 331 q 219 313 203 284 q 187 255 187 206 q 187 162 207 136 q 226 111 259 111 z"},"r":{"x_min":0,"x_max":421,"ha":421,"o":"m 411 556 q 440 556 458 551 l 426 409 q 404 417 377 417 q 320 417 278 372 q 235 328 217 244 l 165 0 l 18 0 l 134 546 l 246 546 l 236 445 l 239 445 q 311 556 411 556 z"},"2":{"x_min":0,"x_max":551,"ha":551,"o":"m 446 0 l -24 0 l -3 104 l 230 311 q 318 389 351 435 q 385 482 385 523 q 385 560 365 579 q 345 598 311 598 q 279 598 245 582 q 211 565 161 524 l 90 623 q 154 678 213 701 q 271 724 335 724 q 428 724 482 676 q 536 628 536 550 q 536 498 516 452 q 496 406 456 360 q 417 314 326 240 l 195 132 l 195 127 l 472 127 z"},"{":{"x_min":0,"x_max":355,"ha":355,"o":"m 98 156 q 98 224 -4 224 l 18 336 q 78 336 112 356 q 146 376 157 424 l 187 563 q 206 646 251 680 q 296 714 383 714 l 424 714 l 400 604 q 356 603 336 587 q 316 571 309 535 l 277 390 q 255 289 142 275 l 142 271 q 184 258 204 231 q 224 203 224 165 q 224 144 217 110 l 199 23 q 196 9 196 -2 q 196 -28 212 -38 q 229 -48 257 -48 l 257 -158 l 231 -158 q 149 -158 107 -127 q 65 -96 65 -37 q 65 -9 72 24 l 91 114 q 98 147 98 156 z"},"9":{"x_min":0,"x_max":551,"ha":551,"o":"m 533 489 q 533 352 485 229 q 437 105 356 48 q 275 -10 159 -10 q 97 -10 42 6 l 42 131 q 96 111 153 111 q 212 111 254 135 q 296 159 324 202 q 353 246 373 328 l 371 328 q 317 251 227 251 q 147 251 104 302 q 60 352 60 441 q 60 522 96 590 q 131 658 191 692 q 251 725 331 725 q 430 725 482 665 q 533 605 533 489 z m 315 604 q 283 604 259 583 q 234 563 220 528 q 207 493 207 453 q 207 411 225 389 q 244 367 277 367 q 306 367 331 385 q 356 403 371 434 q 386 465 386 511 q 386 552 369 578 q 352 604 315 604 z"}," ":{"x_min":0,"x_max":260,"ha":260,"o":""},"I":{"x_min":0,"x_max":322,"ha":322,"o":"m 26 0 l 178 714 l 327 714 l 175 0 z"},"H":{"x_min":0,"x_max":700,"ha":700,"o":"m 554 0 l 405 0 l 470 308 l 240 308 l 175 0 l 26 0 l 177 714 l 326 714 l 267 434 l 497 434 l 556 714 l 705 714 z"},"4":{"x_min":0,"x_max":551,"ha":551,"o":"m 502 148 l 419 148 l 388 0 l 245 0 l 276 148 l -12 148 l 11 262 l 387 714 l 539 714 l 444 265 l 527 265 z m 301 265 l 329 386 q 335 415 349 466 q 362 518 369 535 l 366 535 q 349 504 302 447 l 149 265 z"},"~":{"x_min":0,"x_max":551,"ha":551,"o":"m 167 328 q 141 328 110 312 q 80 296 53 269 l 53 382 q 103 435 178 435 q 209 435 235 428 q 261 421 303 404 q 334 391 357 384 q 380 377 404 377 q 429 377 458 392 q 488 407 518 436 l 518 323 q 468 270 393 270 q 364 270 340 276 q 315 281 268 301 q 225 319 206 324 q 188 328 167 328 z"},"D":{"x_min":0,"x_max":677,"ha":677,"o":"m 646 444 q 646 307 598 206 q 550 105 460 53 q 369 0 246 0 l 26 0 l 177 714 l 370 714 q 502 714 574 644 q 646 574 646 444 z m 253 125 q 325 125 379 162 q 433 199 463 271 q 493 343 493 436 q 493 511 458 551 q 422 590 356 590 l 300 590 l 201 125 z"},"^":{"x_min":0,"x_max":528,"ha":528,"o":"m 10 254 l 312 718 l 384 718 l 519 254 l 410 254 l 325 563 l 129 254 z"},"0":{"x_min":0,"x_max":551,"ha":551,"o":"m 542 494 q 542 265 460 127 q 377 -10 229 -10 q 132 -10 82 50 q 32 109 32 228 q 32 373 73 490 q 114 607 185 666 q 255 725 347 725 q 542 725 542 494 z m 334 603 q 295 603 261 552 q 227 501 204 405 q 180 308 180 225 q 180 169 194 140 q 207 112 241 112 q 281 112 315 164 q 349 215 371 311 q 394 406 394 499 q 394 553 379 578 q 364 603 334 603 z"},"F":{"x_min":0,"x_max":531,"ha":531,"o":"m 175 0 l 26 0 l 177 714 l 574 714 l 548 590 l 300 590 l 261 406 l 492 406 l 465 282 l 234 282 z"},"`":{"x_min":0,"x_max":554,"ha":554,"o":"m 456 606 l 366 606 q 332 640 299 681 q 266 722 248 756 l 248 766 l 400 766 q 417 694 456 618 z"},"k":{"x_min":0,"x_max":568,"ha":568,"o":"m 449 546 l 617 546 l 374 300 l 513 0 l 349 0 l 260 205 l 201 170 l 165 0 l 18 0 l 179 760 l 326 760 l 254 421 q 250 401 240 364 l 226 314 l 228 314 z"},"u":{"x_min":0,"x_max":604,"ha":604,"o":"m 128 546 l 275 546 l 208 227 q 200 194 200 169 q 200 109 253 109 q 298 109 334 165 q 371 220 392 320 l 440 546 l 587 546 l 471 0 l 359 0 l 369 101 l 366 101 q 295 -10 193 -10 q 125 -10 90 31 q 54 71 54 147 q 54 192 66 251 z"},"]":{"x_min":0,"x_max":331,"ha":331,"o":"m -45 -55 l 59 -55 l 201 611 l 96 611 l 118 714 l 349 714 l 163 -158 l -67 -158 z"},"U":{"x_min":0,"x_max":691,"ha":691,"o":"m 700 714 l 602 252 q 574 122 496 56 q 417 -10 291 -10 q 188 -10 128 46 q 69 101 69 196 q 69 231 76 263 l 172 714 l 321 714 l 226 265 q 218 229 218 204 q 218 117 310 117 q 370 117 405 155 q 440 192 456 266 l 551 714 z"},"o":{"x_min":0,"x_max":585,"ha":585,"o":"m 393 340 q 393 436 323 436 q 287 436 258 406 q 229 376 210 319 q 192 261 192 200 q 192 110 265 110 q 302 110 331 140 q 360 170 377 223 q 393 277 393 340 z m 541 340 q 541 237 507 157 q 472 78 407 34 q 342 -10 253 -10 q 158 -10 101 48 q 44 105 44 200 q 44 304 79 385 q 114 467 180 511 q 246 556 334 556 q 430 556 485 499 q 541 441 541 340 z"},"N":{"x_min":0,"x_max":755,"ha":755,"o":"m 609 0 l 442 0 l 268 540 l 265 540 l 263 524 q 248 419 231 336 l 160 0 l 26 0 l 177 714 l 351 714 l 517 188 l 519 188 q 525 225 538 294 q 551 363 626 714 l 760 714 z"},"+":{"x_min":0,"x_max":551,"ha":551,"o":"m 232 299 l 53 299 l 53 406 l 232 406 l 232 586 l 339 586 l 339 406 l 518 406 l 518 299 l 339 299 l 339 121 l 232 121 z"},"G":{"x_min":0,"x_max":690,"ha":690,"o":"m 368 401 l 643 401 l 564 29 q 499 6 443 -2 q 387 -10 324 -10 q 198 -10 129 62 q 60 134 60 268 q 60 399 112 505 q 165 610 259 668 q 354 725 478 725 q 584 725 678 677 l 622 554 q 586 574 550 585 q 514 597 471 597 q 396 597 338 557 q 279 516 245 441 q 212 366 212 280 q 212 196 247 156 q 283 117 356 117 q 393 117 439 129 l 471 275 l 341 275 z"},"q":{"x_min":0,"x_max":594,"ha":594,"o":"m 191 -10 q 148 -10 115 13 q 82 37 63 81 q 44 125 44 188 q 44 285 79 372 q 114 460 171 508 q 229 556 297 556 q 339 556 371 538 q 404 520 432 476 l 436 476 l 464 546 l 577 546 l 410 -240 l 263 -240 q 286 -134 299 -75 q 312 -17 340 73 l 336 73 q 301 27 266 9 q 231 -10 191 -10 z m 261 109 q 292 109 323 143 q 354 177 372 231 q 390 286 390 351 q 390 390 372 414 q 354 437 322 437 q 289 437 259 402 q 229 367 211 309 q 193 251 193 195 q 193 152 211 130 q 229 109 261 109 z"},"d":{"x_min":0,"x_max":594,"ha":594,"o":"m 198 -10 q 126 -10 85 42 q 44 95 44 189 q 44 285 79 372 q 114 459 171 508 q 228 556 297 556 q 337 556 366 538 q 395 520 421 476 l 425 476 l 426 490 q 429 543 438 585 l 475 760 l 622 760 l 461 0 l 349 0 l 356 71 l 354 71 q 319 28 281 9 q 244 -10 198 -10 z m 260 109 q 292 109 323 142 q 353 176 372 231 q 390 287 390 351 q 390 390 372 414 q 354 437 322 437 q 289 437 259 402 q 229 367 211 309 q 193 251 193 195 q 193 109 260 109 z"},"1":{"x_min":0,"x_max":551,"ha":551,"o":"m 336 0 l 187 0 l 275 405 q 292 479 312 545 q 308 541 282 522 q 256 503 154 439 l 89 544 l 365 714 l 487 714 z"},"5":{"x_min":0,"x_max":551,"ha":551,"o":"m 304 450 q 394 450 445 400 q 497 350 497 260 q 497 178 462 117 q 427 56 360 23 q 293 -10 199 -10 q 142 -10 93 1 q 43 13 13 30 l 13 161 q 98 113 185 113 q 260 113 303 147 q 345 182 345 242 q 345 288 317 311 q 289 334 236 334 q 186 334 132 318 l 81 356 l 182 714 l 551 714 l 524 586 l 285 586 l 242 443 q 277 450 304 450 z"}}}
